# Blender v2.63 (sub 0) OBJ File: 'laser.blend'
# www.blender.org
o Plane
v -0.000000 0.100000 -1.520000
v 0.000000 -0.100000 0.480000
v 0.033093 0.000000 0.000000
v 0.028284 0.000000 0.200000
v 0.000000 -0.028284 0.200000
v 0.000000 -0.033093 0.000000
v 0.000000 0.033093 0.000000
v 0.000000 0.028284 0.200000
v -0.028284 -0.000000 0.200000
v -0.033093 -0.000000 0.000000
v 0.000000 0.000000 0.280000
v -0.000000 -0.000000 -1.320000
v 0.100000 -0.000000 -1.520000
v -0.100000 0.000000 0.480000
v 0.000000 0.100000 0.480000
v 0.100000 -0.000000 0.480000
v -0.100000 0.000000 -1.520000
v -0.100000 0.000000 0.480000
v -0.000000 -0.100000 -1.520000
v 0.000000 -0.100000 0.480000
v -0.100000 -0.100000 0.000000
v -0.100000 0.100000 0.000000
v 0.100000 0.100000 0.000000
v -0.100000 -0.100000 0.000000
v 0.100000 -0.100000 0.000000
vt 0.996502 0.621698
vt 0.003498 0.621698
vt 0.003498 0.820298
vt 0.996502 0.820298
vt 0.342289 0.610042
vt 0.019530 0.610042
vt 0.019530 0.287282
vt 0.342289 0.287282
vt 0.169510 0.978301
vt 0.051000 0.960400
vt 0.061495 0.911441
vt 0.170653 0.912526
vt 0.061109 0.912386
vt 0.170267 0.913470
vt 0.169124 0.979245
vt 0.050614 0.961344
vt 0.051575 0.862234
vt 0.170085 0.846494
vt 0.051189 0.863178
vt 0.169699 0.847439
vt 0.009479 0.910999
vt 0.009093 0.911944
vt 0.992419 0.917441
vt 0.992032 0.918386
vn 0.000000 1.000000 -0.000000
vn 1.000000 0.000000 -0.000000
vn -1.000000 0.000000 0.000000
vn -0.000000 -1.000000 0.000000
vn 0.000001 0.000000 1.000000
vn -0.000001 -0.000000 -1.000000
vn 0.000000 0.999969 -0.000488
vn 0.000000 0.985534 0.169439
vn 0.985534 0.000000 0.169439
vn 0.999969 0.000000 -0.000488
vn -0.985534 0.000000 0.169439
vn -0.999969 0.000000 -0.000488
vn 0.000000 -0.999969 -0.000488
vn 0.000000 -0.985534 0.169439
vn 0.000000 0.000000 1.000000
vn 0.000000 0.000000 -1.000000
s off
f 17/1/1 18/2/1 16/3/1
f 17/1/1 16/3/1 13/4/1
f 1/1/2 15/2/2 20/3/2
f 1/1/2 20/3/2 19/4/2
f 1/4/3 19/1/3 2/2/3
f 1/4/3 2/2/3 15/3/3
f 16/2/4 14/3/4 17/4/4
f 16/2/4 17/4/4 13/1/4
f 24/5/5 25/6/5 23/7/5
f 24/5/5 23/7/5 22/8/5
f 22/6/6 23/7/6 25/8/6
f 22/6/6 25/8/6 21/5/6
s 1
f 7/9/7 8/10/8 4/11/9
f 7/9/7 4/11/9 3/12/10
f 9/13/11 10/14/12 6/15/13
f 9/13/11 6/15/13 5/16/14
f 3/12/10 4/11/9 5/17/14
f 3/12/10 5/17/14 6/18/13
f 10/14/12 9/13/11 8/19/8
f 10/14/12 8/19/8 7/20/7
f 11/21/15 4/11/9 8/10/8
f 9/13/11 5/16/14 11/22/15
f 8/19/8 9/13/11 11/22/15
f 5/17/14 4/11/9 11/21/15
f 3/12/10 6/18/13 12/23/16
f 12/23/16 7/9/7 3/12/10
f 12/24/16 6/15/13 10/14/12
f 10/14/12 7/20/7 12/24/16
