# Blender v2.63 (sub 0) OBJ File: ''
# www.blender.org
o Icosphere
v 0.000000 -1.000000 0.000000
v 0.723607 -0.447220 0.525725
v -0.276388 -0.447220 0.850649
v -0.894426 -0.447216 0.000000
v -0.276388 -0.447220 -0.850649
v 0.723607 -0.447220 -0.525725
v 0.276388 0.447220 0.850649
v -0.723607 0.447220 0.525725
v -0.723607 0.447220 -0.525725
v 0.276388 0.447220 -0.850649
v 0.894426 0.447216 0.000000
v 0.000000 1.000000 0.000000
v 0.203181 -0.967950 0.147618
v 0.425323 -0.850654 0.309011
v 0.609547 -0.657519 0.442856
v 0.531941 -0.502302 0.681712
v 0.262869 -0.525738 0.809012
v -0.029639 -0.502302 0.864184
v -0.232822 -0.657519 0.716563
v -0.162456 -0.850654 0.499995
v -0.077607 -0.967950 0.238853
v 0.203181 -0.967950 -0.147618
v 0.425323 -0.850654 -0.309011
v 0.609547 -0.657519 -0.442856
v 0.812729 -0.502301 -0.295238
v 0.850648 -0.525736 0.000000
v 0.812729 -0.502301 0.295238
v -0.483971 -0.502302 0.716565
v -0.688189 -0.525736 0.499997
v -0.831051 -0.502299 0.238853
v -0.753442 -0.657515 0.000000
v -0.525730 -0.850652 0.000000
v -0.251147 -0.967949 0.000000
v -0.831051 -0.502299 -0.238853
v -0.688189 -0.525736 -0.499997
v -0.483971 -0.502302 -0.716565
v -0.232822 -0.657519 -0.716563
v -0.162456 -0.850654 -0.499995
v -0.077607 -0.967950 -0.238853
v -0.029639 -0.502302 -0.864184
v 0.262869 -0.525738 -0.809012
v 0.531941 -0.502302 -0.681712
v 0.860698 -0.251151 -0.442858
v 0.951058 0.000000 -0.309013
v 0.956626 0.251149 -0.147618
v 0.956626 0.251149 0.147618
v 0.951058 -0.000000 0.309013
v 0.860698 -0.251151 0.442858
v 0.687159 -0.251152 0.681715
v 0.587786 0.000000 0.809017
v 0.436007 0.251152 0.864188
v 0.155215 0.251152 0.955422
v -0.000000 -0.000000 1.000000
v -0.155215 -0.251152 0.955422
v -0.436007 -0.251152 0.864188
v -0.587786 0.000000 0.809017
v -0.687159 0.251152 0.681715
v -0.860698 0.251151 0.442858
v -0.951058 -0.000000 0.309013
v -0.956626 -0.251149 0.147618
v -0.956626 -0.251149 -0.147618
v -0.951058 0.000000 -0.309013
v -0.860698 0.251151 -0.442858
v -0.687159 0.251152 -0.681715
v -0.587786 -0.000000 -0.809017
v -0.436007 -0.251152 -0.864188
v -0.155215 -0.251152 -0.955422
v 0.000000 0.000000 -1.000000
v 0.155215 0.251152 -0.955422
v 0.436007 0.251152 -0.864188
v 0.587786 -0.000000 -0.809017
v 0.687159 -0.251152 -0.681715
v 0.831051 0.502299 0.238853
v 0.688189 0.525736 0.499997
v 0.483971 0.502302 0.716565
v 0.029639 0.502302 0.864184
v -0.262869 0.525738 0.809012
v -0.531941 0.502302 0.681712
v -0.812729 0.502301 0.295238
v -0.850648 0.525736 -0.000000
v -0.812729 0.502301 -0.295238
v -0.531941 0.502302 -0.681712
v -0.262869 0.525738 -0.809012
v 0.029639 0.502302 -0.864184
v 0.483971 0.502302 -0.716565
v 0.688189 0.525736 -0.499997
v 0.831051 0.502299 -0.238853
v 0.753442 0.657515 0.000000
v 0.525730 0.850652 0.000000
v 0.251147 0.967949 0.000000
v 0.077607 0.967950 0.238853
v 0.162456 0.850654 0.499995
v 0.232822 0.657519 0.716563
v -0.203181 0.967950 0.147618
v -0.425323 0.850654 0.309011
v -0.609547 0.657519 0.442856
v -0.203181 0.967950 -0.147618
v -0.425323 0.850654 -0.309011
v -0.609547 0.657519 -0.442856
v 0.077607 0.967950 -0.238853
v 0.162456 0.850654 -0.499995
v 0.232822 0.657519 -0.716563
v 0.052790 -0.723612 0.688185
v 0.138199 -0.894429 0.425321
v 0.361805 -0.723611 0.587779
v 0.670817 -0.723611 -0.162457
v 0.670817 -0.723610 0.162458
v 0.447211 -0.894428 0.000001
v -0.638195 -0.723609 0.262864
v -0.361801 -0.894428 0.262864
v -0.447211 -0.723610 0.525729
v -0.447211 -0.723611 -0.525727
v -0.361801 -0.894429 -0.262863
v -0.638195 -0.723609 -0.262863
v 0.361804 -0.723612 -0.587779
v 0.138197 -0.894429 -0.425321
v 0.052789 -0.723611 -0.688186
v 1.000000 0.000000 0.000000
v 0.947213 -0.276396 0.162458
v 0.947213 -0.276396 -0.162458
v 0.309017 0.000000 0.951056
v 0.138199 -0.276398 0.951055
v 0.447216 -0.276398 0.850648
v -0.809018 0.000000 0.587783
v -0.861803 -0.276396 0.425324
v -0.670819 -0.276397 0.688191
v -0.809018 -0.000000 -0.587783
v -0.670819 -0.276397 -0.688191
v -0.861803 -0.276396 -0.425324
v 0.309017 -0.000000 -0.951056
v 0.447216 -0.276398 -0.850648
v 0.138199 -0.276398 -0.951055
v 0.670820 0.276396 0.688190
v 0.809019 -0.000002 0.587783
v 0.861804 0.276394 0.425323
v -0.447216 0.276397 0.850649
v -0.309017 -0.000001 0.951056
v -0.138199 0.276397 0.951055
v -0.947213 0.276396 -0.162458
v -1.000000 0.000001 0.000000
v -0.947213 0.276397 0.162458
v -0.138199 0.276397 -0.951055
v -0.309016 -0.000000 -0.951057
v -0.447215 0.276397 -0.850649
v 0.861804 0.276396 -0.425322
v 0.809019 0.000000 -0.587782
v 0.670821 0.276397 -0.688189
v 0.361800 0.894429 0.262863
v 0.447209 0.723612 0.525728
v 0.638194 0.723610 0.262864
v -0.138197 0.894430 0.425320
v -0.361804 0.723612 0.587778
v -0.052790 0.723612 0.688185
v -0.447210 0.894429 0.000000
v -0.670817 0.723611 -0.162457
v -0.670817 0.723611 0.162457
v -0.138197 0.894430 -0.425320
v -0.052790 0.723612 -0.688185
v -0.361804 0.723612 -0.587778
v 0.361800 0.894429 -0.262863
v 0.638194 0.723610 -0.262864
v 0.447209 0.723612 -0.525728
vt 0.377882 -0.000000
vt 0.650001 0.016025
vt 0.450001 0.016025
vt 0.650001 0.276390
vt 0.650001 0.171241
vt 0.694543 0.248850
vt 0.250000 0.016025
vt 0.049999 0.016025
vt 1.049999 0.016025
vt 0.849999 0.016025
vt 0.674369 0.374425
vt 0.450001 0.276390
vt 0.494544 0.248849
vt 0.474368 0.374424
vt 0.250000 0.276392
vt 0.294542 0.248851
vt 0.274367 0.374425
vt 0.049999 0.276390
vt 0.094542 0.248849
vt 0.074367 0.374424
vt 0.849999 0.276390
vt 0.894542 0.248849
vt 0.874367 0.374424
vt 0.625633 0.374424
vt 0.425633 0.374424
vt 0.225633 0.374425
vt 0.025632 0.374424
vt 0.825631 0.374425
vt 0.549999 0.723610
vt 0.594543 0.751151
vt 0.549999 0.828760
vt 0.349999 0.723610
vt 0.394542 0.751151
vt 0.349999 0.828760
vt 0.150001 0.723610
vt 0.194543 0.751150
vt 0.150001 0.828759
vt 0.950001 0.723610
vt 0.994544 0.751151
vt 0.950001 0.828760
vt 0.750000 0.723608
vt 0.794542 0.751149
vt 0.750000 0.828757
vt 0.450001 0.171240
vt 0.450001 0.074673
vt 0.512185 0.138194
vt 0.550001 0.052785
vt 0.550001 0.237131
vt 0.587817 0.138195
vt 0.605458 0.248849
vt 0.650001 0.074673
vt 0.805457 0.248850
vt 0.849999 0.171240
vt 0.750000 0.237132
vt 0.787816 0.138195
vt 0.712184 0.138195
vt 0.849999 0.074673
vt 0.750000 0.052786
vt 0.250000 0.171243
vt 0.250000 0.074674
vt 0.312184 0.138195
vt 0.350000 0.052786
vt 0.350000 0.237132
vt 0.387816 0.138195
vt 0.405458 0.248849
vt 0.049999 0.171240
vt 0.049999 0.074673
vt 0.112184 0.138194
vt 0.150000 0.052785
vt 0.150000 0.237132
vt 0.187817 0.138195
vt 0.205458 0.248851
vt 0.912183 0.138194
vt 0.950000 0.052785
vt 0.949999 0.237131
vt 0.987815 0.138194
vt 1.005456 0.248849
vt 1.049999 0.074673
vt 1.049999 0.171240
vt 0.005456 0.248849
vt 0.725633 0.625575
vt 0.774367 0.625575
vt 0.700001 0.500000
vt 0.750000 0.500000
vt 0.722966 0.361802
vt 0.799999 0.500000
vt 0.777034 0.361802
vt 0.525632 0.625576
vt 0.574367 0.625576
vt 0.500000 0.500000
vt 0.550000 0.500000
vt 0.522966 0.361801
vt 0.600000 0.500000
vt 0.577035 0.361801
vt 0.325631 0.625575
vt 0.374367 0.625576
vt 0.299999 0.500000
vt 0.350000 0.500000
vt 0.322966 0.361802
vt 0.400000 0.500000
vt 0.377034 0.361801
vt 0.125633 0.625576
vt 0.174369 0.625575
vt 0.100000 0.500000
vt 0.150000 0.500000
vt 0.122966 0.361801
vt 0.200001 0.500000
vt 0.177034 0.361802
vt 0.925633 0.625576
vt 0.974368 0.625576
vt 0.900000 0.500000
vt 0.950000 0.500000
vt 0.922965 0.361801
vt 1.000000 0.500000
vt 0.977034 0.361801
vt 1.025632 0.374424
vt 0.622966 0.638198
vt 0.650000 0.499999
vt 0.650000 0.762868
vt 0.677035 0.638197
vt 0.705458 0.751149
vt 0.422965 0.638198
vt 0.450000 0.500000
vt 0.449999 0.762869
vt 0.477034 0.638198
vt 0.505456 0.751151
vt 0.222966 0.638198
vt 0.250000 0.500000
vt 0.250000 0.762868
vt 0.277034 0.638198
vt 0.305457 0.751150
vt 1.022966 0.638198
vt 0.050000 0.500000
vt 0.000000 0.500000
vt 1.050001 0.762869
vt 0.022966 0.638198
vt 0.077035 0.638199
vt 0.050001 0.762869
vt 0.105458 0.751151
vt 0.822965 0.638198
vt 0.849999 0.500000
vt 0.850000 0.762868
vt 0.877034 0.638199
vt 0.905457 0.751151
vt 0.549999 0.983975
vt 0.750000 0.983975
vt 0.877882 1.000000
vt 0.549999 0.925327
vt 0.650000 0.947215
vt 0.612184 0.861806
vt 0.750000 0.925326
vt 0.687816 0.861805
vt 1.349999 0.983975
vt 0.349999 0.925327
vt 0.449999 0.947215
vt 0.349999 0.983975
vt 0.412183 0.861806
vt 0.487815 0.861806
vt 1.150001 0.983975
vt 0.150001 0.925327
vt 0.250000 0.947215
vt 0.150001 0.983975
vt 0.212184 0.861805
vt 0.287816 0.861806
vt 0.950001 0.983975
vt 0.950001 0.925327
vt 1.050001 0.947215
vt 1.012185 0.861806
vt 0.050001 0.947215
vt 0.012185 0.861806
vt 0.087817 0.861806
vt 0.850000 0.947215
vt 0.812184 0.861805
vt 0.887816 0.861806
vn 0.000000 -1.000000 0.000000
vn 0.210944 -0.965392 0.153264
vn -0.080569 -0.965392 0.247963
vn 0.723594 -0.447218 0.525712
vn 0.604205 -0.664968 0.438978
vn 0.815180 -0.503800 0.285714
vn -0.260750 -0.965392 0.000000
vn -0.080569 -0.965392 -0.247963
vn 0.210944 -0.965392 -0.153264
vn 0.864986 -0.243049 0.438978
vn -0.276376 -0.447218 0.850642
vn -0.019837 -0.503800 0.863552
vn -0.150212 -0.243049 0.958281
vn -0.894406 -0.447188 0.000000
vn -0.827448 -0.503800 0.247963
vn -0.957823 -0.243049 0.153264
vn -0.276376 -0.447218 -0.850642
vn -0.491531 -0.503800 -0.710288
vn -0.441725 -0.243049 -0.863582
vn 0.723594 -0.447218 -0.525712
vn 0.523637 -0.503800 -0.686972
vn 0.684805 -0.243049 -0.686972
vn 0.684805 -0.243049 0.686972
vn -0.441725 -0.243049 0.863582
vn -0.957823 -0.243049 -0.153264
vn -0.150212 -0.243049 -0.958281
vn 0.864986 -0.243049 -0.438978
vn 0.276376 0.447218 0.850642
vn 0.491531 0.503800 0.710288
vn 0.230781 0.664968 0.710288
vn -0.723594 0.447218 0.525712
vn -0.523637 0.503800 0.686972
vn -0.604205 0.664968 0.438978
vn -0.723594 0.447218 -0.525712
vn -0.815180 0.503800 -0.285714
vn -0.604205 0.664968 -0.438978
vn 0.276376 0.447218 -0.850642
vn 0.019837 0.503800 -0.863552
vn 0.230781 0.664968 -0.710288
vn 0.894406 0.447188 0.000000
vn 0.827448 0.503800 -0.247963
vn 0.746849 0.664968 0.000000
vn -0.230781 -0.664968 0.710288
vn -0.162450 -0.850642 0.499985
vn 0.059206 -0.727531 0.683493
vn 0.140629 -0.890408 0.432844
vn 0.262856 -0.525712 0.808985
vn 0.353832 -0.727531 0.587756
vn 0.523637 -0.503800 0.686972
vn 0.425306 -0.850642 0.309000
vn 0.815180 -0.503800 -0.285714
vn 0.604205 -0.664968 -0.438978
vn 0.850642 -0.525712 0.000000
vn 0.668325 -0.727531 -0.154881
vn 0.668325 -0.727531 0.154881
vn 0.425306 -0.850642 -0.309000
vn 0.455123 -0.890408 0.000000
vn -0.746849 -0.664968 0.000000
vn -0.525712 -0.850642 0.000000
vn -0.631733 -0.727531 0.267495
vn -0.368206 -0.890408 0.267495
vn -0.688162 -0.525712 0.499985
vn -0.449629 -0.727531 0.518143
vn -0.491531 -0.503800 0.710288
vn -0.230781 -0.664968 -0.710288
vn -0.162450 -0.850642 -0.499985
vn -0.449629 -0.727531 -0.518143
vn -0.368206 -0.890408 -0.267495
vn -0.688162 -0.525712 -0.499985
vn -0.631733 -0.727531 -0.267495
vn -0.827448 -0.503800 -0.247963
vn 0.353832 -0.727531 -0.587756
vn 0.140629 -0.890408 -0.432844
vn 0.262856 -0.525712 -0.808985
vn 0.059206 -0.727531 -0.683493
vn -0.019837 -0.503800 -0.863552
vn 0.957823 0.243049 0.153264
vn 0.957823 0.243049 -0.153264
vn 0.951048 0.000000 0.309000
vn 0.999939 -0.008850 0.000000
vn 0.949614 -0.272408 0.154881
vn 0.951048 0.000000 -0.309000
vn 0.949614 -0.272408 -0.154881
vn 0.150212 0.243049 0.958281
vn 0.441725 0.243049 0.863582
vn 0.000000 0.000000 1.000000
vn 0.309000 -0.008850 0.951018
vn 0.146123 -0.272408 0.950987
vn 0.587756 0.000000 0.809015
vn 0.440748 -0.272408 0.855251
vn -0.864986 0.243049 0.438978
vn -0.684805 0.243049 0.686972
vn -0.951048 0.000000 0.309000
vn -0.808985 -0.008850 0.587756
vn -0.859310 -0.272408 0.432844
vn -0.587756 0.000000 0.809015
vn -0.677206 -0.272408 0.683493
vn -0.684805 0.243049 -0.686972
vn -0.864986 0.243049 -0.438978
vn -0.587756 0.000000 -0.809015
vn -0.808985 -0.008850 -0.587756
vn -0.677206 -0.272408 -0.683493
vn -0.951048 0.000000 -0.309000
vn -0.859310 -0.272408 -0.432844
vn 0.441725 0.243049 -0.863582
vn 0.150212 0.243049 -0.958281
vn 0.587756 0.000000 -0.809015
vn 0.309000 -0.008850 -0.951018
vn 0.440748 -0.272408 -0.855251
vn 0.000000 0.000000 -1.000000
vn 0.146123 -0.272408 -0.950987
vn 0.677206 0.272408 0.683493
vn 0.808985 0.008850 0.587756
vn 0.688162 0.525712 0.499985
vn 0.859310 0.272408 0.432844
vn 0.827448 0.503800 0.247963
vn -0.440748 0.272408 0.855251
vn -0.309000 0.008850 0.951018
vn -0.262856 0.525712 0.808985
vn -0.146123 0.272408 0.950987
vn 0.019837 0.503800 0.863552
vn -0.949614 0.272408 -0.154881
vn -0.999939 0.008850 0.000000
vn -0.850642 0.525712 0.000000
vn -0.949614 0.272408 0.154881
vn -0.815180 0.503800 0.285714
vn -0.146123 0.272408 -0.950987
vn -0.309000 0.008850 -0.951018
vn -0.262856 0.525712 -0.808985
vn -0.440748 0.272408 -0.855251
vn -0.523637 0.503800 -0.686972
vn 0.859310 0.272408 -0.432844
vn 0.808985 0.008850 -0.587756
vn 0.688162 0.525712 -0.499985
vn 0.677206 0.272408 -0.683493
vn 0.491531 0.503800 -0.710288
vn 0.080569 0.965392 0.247963
vn 0.260750 0.965392 0.000000
vn 0.000000 1.000000 0.000000
vn 0.162450 0.850642 0.499985
vn 0.368206 0.890408 0.267495
vn 0.449629 0.727531 0.518143
vn 0.525712 0.850642 0.000000
vn 0.631733 0.727531 0.267495
vn -0.210944 0.965392 0.153264
vn -0.425306 0.850642 0.309000
vn -0.140629 0.890408 0.432844
vn -0.353832 0.727531 0.587725
vn -0.059206 0.727531 0.683493
vn -0.210944 0.965392 -0.153264
vn -0.425306 0.850642 -0.309000
vn -0.455123 0.890408 0.000000
vn -0.668325 0.727531 -0.154881
vn -0.668325 0.727531 0.154881
vn 0.080569 0.965392 -0.247963
vn 0.162450 0.850642 -0.499985
vn -0.140629 0.890408 -0.432844
vn -0.059206 0.727531 -0.683493
vn -0.353832 0.727531 -0.587725
vn 0.368206 0.890408 -0.267495
vn 0.631733 0.727531 -0.267495
vn 0.449629 0.727531 -0.518143
s 1
f 1/1/1 13/2/2 21/3/3
f 2/4/4 15/5/5 27/6/6
f 1/1/1 21/3/3 33/7/7
f 1/1/1 33/7/7 39/8/8
f 1/1/1 39/9/8 22/10/9
f 2/4/4 27/6/6 48/11/10
f 3/12/11 18/13/12 54/14/13
f 4/15/14 30/16/15 60/17/16
f 5/18/17 36/19/18 66/20/19
f 6/21/20 42/22/21 72/23/22
f 2/4/4 48/11/10 49/24/23
f 3/12/11 54/14/13 55/25/24
f 4/15/14 60/17/16 61/26/25
f 5/18/17 66/20/19 67/27/26
f 6/21/20 72/23/22 43/28/27
f 7/29/28 75/30/29 93/31/30
f 8/32/31 78/33/32 96/34/33
f 9/35/34 81/36/35 99/37/36
f 10/38/37 84/39/38 102/40/39
f 11/41/40 87/42/41 88/43/42
f 19/44/43 18/13/12 3/12/11
f 20/45/44 103/46/45 19/44/43
f 21/3/3 104/47/46 20/45/44
f 19/44/43 103/46/45 18/13/12
f 103/46/45 17/48/47 18/13/12
f 20/45/44 104/47/46 103/46/45
f 104/47/46 105/49/48 103/46/45
f 103/46/45 105/49/48 17/48/47
f 105/49/48 16/50/49 17/48/47
f 21/3/3 13/2/2 104/47/46
f 13/2/2 14/51/50 104/47/46
f 104/47/46 14/51/50 105/49/48
f 14/51/50 15/5/5 105/49/48
f 105/49/48 15/5/5 16/50/49
f 15/5/5 2/4/4 16/50/49
f 25/52/51 24/53/52 6/21/20
f 26/54/53 106/55/54 25/52/51
f 27/6/6 107/56/55 26/54/53
f 25/52/51 106/55/54 24/53/52
f 106/55/54 23/57/56 24/53/52
f 26/54/53 107/56/55 106/55/54
f 107/56/55 108/58/57 106/55/54
f 106/55/54 108/58/57 23/57/56
f 108/58/57 22/10/9 23/57/56
f 27/6/6 15/5/5 107/56/55
f 15/5/5 14/51/50 107/56/55
f 107/56/55 14/51/50 108/58/57
f 14/51/50 13/2/2 108/58/57
f 108/58/57 13/2/2 22/10/9
f 13/2/2 1/1/1 22/10/9
f 31/59/58 30/16/15 4/15/14
f 32/60/59 109/61/60 31/59/58
f 33/7/7 110/62/61 32/60/59
f 31/59/58 109/61/60 30/16/15
f 109/61/60 29/63/62 30/16/15
f 32/60/59 110/62/61 109/61/60
f 110/62/61 111/64/63 109/61/60
f 109/61/60 111/64/63 29/63/62
f 111/64/63 28/65/64 29/63/62
f 33/7/7 21/3/3 110/62/61
f 21/3/3 20/45/44 110/62/61
f 110/62/61 20/45/44 111/64/63
f 20/45/44 19/44/43 111/64/63
f 111/64/63 19/44/43 28/65/64
f 19/44/43 3/12/11 28/65/64
f 37/66/65 36/19/18 5/18/17
f 38/67/66 112/68/67 37/66/65
f 39/8/8 113/69/68 38/67/66
f 37/66/65 112/68/67 36/19/18
f 112/68/67 35/70/69 36/19/18
f 38/67/66 113/69/68 112/68/67
f 113/69/68 114/71/70 112/68/67
f 112/68/67 114/71/70 35/70/69
f 114/71/70 34/72/71 35/70/69
f 39/8/8 33/7/7 113/69/68
f 33/7/7 32/60/59 113/69/68
f 113/69/68 32/60/59 114/71/70
f 32/60/59 31/59/58 114/71/70
f 114/71/70 31/59/58 34/72/71
f 31/59/58 4/15/14 34/72/71
f 24/53/52 42/22/21 6/21/20
f 23/57/56 115/73/72 24/53/52
f 22/10/9 116/74/73 23/57/56
f 24/53/52 115/73/72 42/22/21
f 115/73/72 41/75/74 42/22/21
f 23/57/56 116/74/73 115/73/72
f 116/74/73 117/76/75 115/73/72
f 115/73/72 117/76/75 41/75/74
f 117/76/75 40/77/76 41/75/74
f 22/10/9 39/9/8 116/74/73
f 39/9/8 38/78/66 116/74/73
f 116/74/73 38/78/66 117/76/75
f 38/78/66 37/79/65 117/76/75
f 117/76/75 37/79/65 40/77/76
f 37/66/65 5/18/17 40/80/76
f 46/81/77 45/82/78 11/41/40
f 47/83/79 118/84/80 46/81/77
f 48/11/10 119/85/81 47/83/79
f 46/81/77 118/84/80 45/82/78
f 118/84/80 44/86/82 45/82/78
f 47/83/79 119/85/81 118/84/80
f 119/85/81 120/87/83 118/84/80
f 118/84/80 120/87/83 44/86/82
f 120/87/83 43/28/27 44/86/82
f 48/11/10 27/6/6 119/85/81
f 27/6/6 26/54/53 119/85/81
f 119/85/81 26/54/53 120/87/83
f 26/54/53 25/52/51 120/87/83
f 120/87/83 25/52/51 43/28/27
f 25/52/51 6/21/20 43/28/27
f 52/88/84 51/89/85 7/29/28
f 53/90/86 121/91/87 52/88/84
f 54/14/13 122/92/88 53/90/86
f 52/88/84 121/91/87 51/89/85
f 121/91/87 50/93/89 51/89/85
f 53/90/86 122/92/88 121/91/87
f 122/92/88 123/94/90 121/91/87
f 121/91/87 123/94/90 50/93/89
f 123/94/90 49/24/23 50/93/89
f 54/14/13 18/13/12 122/92/88
f 18/13/12 17/48/47 122/92/88
f 122/92/88 17/48/47 123/94/90
f 17/48/47 16/50/49 123/94/90
f 123/94/90 16/50/49 49/24/23
f 16/50/49 2/4/4 49/24/23
f 58/95/91 57/96/92 8/32/31
f 59/97/93 124/98/94 58/95/91
f 60/17/16 125/99/95 59/97/93
f 58/95/91 124/98/94 57/96/92
f 124/98/94 56/100/96 57/96/92
f 59/97/93 125/99/95 124/98/94
f 125/99/95 126/101/97 124/98/94
f 124/98/94 126/101/97 56/100/96
f 126/101/97 55/25/24 56/100/96
f 60/17/16 30/16/15 125/99/95
f 30/16/15 29/63/62 125/99/95
f 125/99/95 29/63/62 126/101/97
f 29/63/62 28/65/64 126/101/97
f 126/101/97 28/65/64 55/25/24
f 28/65/64 3/12/11 55/25/24
f 64/102/98 63/103/99 9/35/34
f 65/104/100 127/105/101 64/102/98
f 66/20/19 128/106/102 65/104/100
f 64/102/98 127/105/101 63/103/99
f 127/105/101 62/107/103 63/103/99
f 65/104/100 128/106/102 127/105/101
f 128/106/102 129/108/104 127/105/101
f 127/105/101 129/108/104 62/107/103
f 129/108/104 61/26/25 62/107/103
f 66/20/19 36/19/18 128/106/102
f 36/19/18 35/70/69 128/106/102
f 128/106/102 35/70/69 129/108/104
f 35/70/69 34/72/71 129/108/104
f 129/108/104 34/72/71 61/26/25
f 34/72/71 4/15/14 61/26/25
f 70/109/105 69/110/106 10/38/37
f 71/111/107 130/112/108 70/109/105
f 72/23/22 131/113/109 71/111/107
f 70/109/105 130/112/108 69/110/106
f 130/112/108 68/114/110 69/110/106
f 71/111/107 131/113/109 130/112/108
f 131/113/109 132/115/111 130/112/108
f 130/112/108 132/115/111 68/114/110
f 132/115/111 67/116/26 68/114/110
f 72/23/22 42/22/21 131/113/109
f 42/22/21 41/75/74 131/113/109
f 131/113/109 41/75/74 132/115/111
f 41/75/74 40/77/76 132/115/111
f 132/115/111 40/77/76 67/116/26
f 40/80/76 5/18/17 67/27/26
f 51/89/85 75/30/29 7/29/28
f 50/93/89 133/117/112 51/89/85
f 49/24/23 134/118/113 50/93/89
f 51/89/85 133/117/112 75/30/29
f 133/117/112 74/119/114 75/30/29
f 50/93/89 134/118/113 133/117/112
f 134/118/113 135/120/115 133/117/112
f 133/117/112 135/120/115 74/119/114
f 135/120/115 73/121/116 74/119/114
f 49/24/23 48/11/10 134/118/113
f 48/11/10 47/83/79 134/118/113
f 134/118/113 47/83/79 135/120/115
f 47/83/79 46/81/77 135/120/115
f 135/120/115 46/81/77 73/121/116
f 46/81/77 11/41/40 73/121/116
f 57/96/92 78/33/32 8/32/31
f 56/100/96 136/122/117 57/96/92
f 55/25/24 137/123/118 56/100/96
f 57/96/92 136/122/117 78/33/32
f 136/122/117 77/124/119 78/33/32
f 56/100/96 137/123/118 136/122/117
f 137/123/118 138/125/120 136/122/117
f 136/122/117 138/125/120 77/124/119
f 138/125/120 76/126/121 77/124/119
f 55/25/24 54/14/13 137/123/118
f 54/14/13 53/90/86 137/123/118
f 137/123/118 53/90/86 138/125/120
f 53/90/86 52/88/84 138/125/120
f 138/125/120 52/88/84 76/126/121
f 52/88/84 7/29/28 76/126/121
f 63/103/99 81/36/35 9/35/34
f 62/107/103 139/127/122 63/103/99
f 61/26/25 140/128/123 62/107/103
f 63/103/99 139/127/122 81/36/35
f 139/127/122 80/129/124 81/36/35
f 62/107/103 140/128/123 139/127/122
f 140/128/123 141/130/125 139/127/122
f 139/127/122 141/130/125 80/129/124
f 141/130/125 79/131/126 80/129/124
f 61/26/25 60/17/16 140/128/123
f 60/17/16 59/97/93 140/128/123
f 140/128/123 59/97/93 141/130/125
f 59/97/93 58/95/91 141/130/125
f 141/130/125 58/95/91 79/131/126
f 58/95/91 8/32/31 79/131/126
f 69/110/106 84/39/38 10/38/37
f 68/114/110 142/132/127 69/110/106
f 67/27/26 143/133/128 68/134/110
f 69/110/106 142/132/127 84/39/38
f 142/132/127 83/135/129 84/39/38
f 68/134/110 143/133/128 142/136/127
f 143/133/128 144/137/130 142/136/127
f 142/136/127 144/137/130 83/138/129
f 144/137/130 82/139/131 83/138/129
f 67/27/26 66/20/19 143/133/128
f 66/20/19 65/104/100 143/133/128
f 143/133/128 65/104/100 144/137/130
f 65/104/100 64/102/98 144/137/130
f 144/137/130 64/102/98 82/139/131
f 64/102/98 9/35/34 82/139/131
f 45/82/78 87/42/41 11/41/40
f 44/86/82 145/140/132 45/82/78
f 43/28/27 146/141/133 44/86/82
f 45/82/78 145/140/132 87/42/41
f 145/140/132 86/142/134 87/42/41
f 44/86/82 146/141/133 145/140/132
f 146/141/133 147/143/135 145/140/132
f 145/140/132 147/143/135 86/142/134
f 147/143/135 85/144/136 86/142/134
f 43/28/27 72/23/22 146/141/133
f 72/23/22 71/111/107 146/141/133
f 146/141/133 71/111/107 147/143/135
f 71/111/107 70/109/105 147/143/135
f 147/143/135 70/109/105 85/144/136
f 70/109/105 10/38/37 85/144/136
f 91/145/137 90/146/138 12/147/139
f 92/148/140 148/149/141 91/145/137
f 93/31/30 149/150/142 92/148/140
f 91/145/137 148/149/141 90/146/138
f 148/149/141 89/151/143 90/146/138
f 92/148/140 149/150/142 148/149/141
f 149/150/142 150/152/144 148/149/141
f 148/149/141 150/152/144 89/151/143
f 150/152/144 88/43/42 89/151/143
f 93/31/30 75/30/29 149/150/142
f 75/30/29 74/119/114 149/150/142
f 149/150/142 74/119/114 150/152/144
f 74/119/114 73/121/116 150/152/144
f 150/152/144 73/121/116 88/43/42
f 73/121/116 11/41/40 88/43/42
f 94/153/145 91/145/137 12/147/139
f 95/154/146 151/155/147 94/156/145
f 96/34/33 152/157/148 95/154/146
f 94/156/145 151/155/147 91/145/137
f 151/155/147 92/148/140 91/145/137
f 95/154/146 152/157/148 151/155/147
f 152/157/148 153/158/149 151/155/147
f 151/155/147 153/158/149 92/148/140
f 153/158/149 93/31/30 92/148/140
f 96/34/33 78/33/32 152/157/148
f 78/33/32 77/124/119 152/157/148
f 152/157/148 77/124/119 153/158/149
f 77/124/119 76/126/121 153/158/149
f 153/158/149 76/126/121 93/31/30
f 76/126/121 7/29/28 93/31/30
f 97/159/150 94/153/145 12/147/139
f 98/160/151 154/161/152 97/162/150
f 99/37/36 155/163/153 98/160/151
f 97/162/150 154/161/152 94/156/145
f 154/161/152 95/154/146 94/156/145
f 98/160/151 155/163/153 154/161/152
f 155/163/153 156/164/154 154/161/152
f 154/161/152 156/164/154 95/154/146
f 156/164/154 96/34/33 95/154/146
f 99/37/36 81/36/35 155/163/153
f 81/36/35 80/129/124 155/163/153
f 155/163/153 80/129/124 156/164/154
f 80/129/124 79/131/126 156/164/154
f 156/164/154 79/131/126 96/34/33
f 79/131/126 8/32/31 96/34/33
f 100/165/155 97/159/150 12/147/139
f 101/166/156 157/167/157 100/165/155
f 102/40/39 158/168/158 101/166/156
f 100/165/155 157/167/157 97/159/150
f 157/169/157 98/160/151 97/162/150
f 101/166/156 158/168/158 157/167/157
f 158/170/158 159/171/159 157/169/157
f 157/169/157 159/171/159 98/160/151
f 159/171/159 99/37/36 98/160/151
f 102/40/39 84/39/38 158/168/158
f 84/39/38 83/135/129 158/168/158
f 158/170/158 83/138/129 159/171/159
f 83/138/129 82/139/131 159/171/159
f 159/171/159 82/139/131 99/37/36
f 82/139/131 9/35/34 99/37/36
f 90/146/138 100/165/155 12/147/139
f 89/151/143 160/172/160 90/146/138
f 88/43/42 161/173/161 89/151/143
f 90/146/138 160/172/160 100/165/155
f 160/172/160 101/166/156 100/165/155
f 89/151/143 161/173/161 160/172/160
f 161/173/161 162/174/162 160/172/160
f 160/172/160 162/174/162 101/166/156
f 162/174/162 102/40/39 101/166/156
f 88/43/42 87/42/41 161/173/161
f 87/42/41 86/142/134 161/173/161
f 161/173/161 86/142/134 162/174/162
f 86/142/134 85/144/136 162/174/162
f 162/174/162 85/144/136 102/40/39
f 85/144/136 10/38/37 102/40/39
